#!OML:ASF E:/inclinewalkrobotboard/Project1/Captureday1/Session1/subject1.ASF
:FULLY-SPECIFIED
:DEGREES
76
root 0 0 0 -1.4726528719818757 -1.5072984348556804 -3.9976675674204696
lowerback 19.7641646518492 3.0345967588782226 0.15294127239612965
upperback 2.2501831463480464 4.09953851876675 -0.528960365901278
thorax -8.641423520476186 1.9742487300211784 -1.3163291326203184
lowerneck -8.613854478096272 -5.958147505190947 -1.49036519878386
upperneck -1.0807333612787708 -8.601312472402972 5.844879653744485
head 1.3363861883069248 -3.9401529934175397 1.541412403324418
rclavicle -8.796905172510517E-16 7.813604279206745E-16
rhumerus 36.60491332561559 -3.922554883442671 -29.04723179818886
rradius 150.6297480572356
rwrist -24.762220088526448
rhand -19.329487154076197 -31.10663995202836
rfingers 7.125019999999954
rthumb 7.008302703799319 -60.918139818818325
lclavicle -1.7082435293220816E-15 9.600587589256238E-16
lhumerus -47.375376662343484 -6.202429225759549 79.83479618666829
lradius 62.016480720468394
lwrist 10.808367693173759
lhand -14.53348263039205 -19.92995603418828
lfingers 7.125019999999868
lthumb 11.551327799646756 9.790105259635412
rfemur -0.13102776693502838 8.954548676609514 35.73814440146923
rtibia 26.572500509077774
rfoot -21.686338038002276 -7.893700963016825
rtoes 5.72489177121354
lfemur -26.048190579001787 2.284694290177683 -15.4020129084983
ltibia 52.48891186844451
lfoot -3.0656986147929004 -4.962719002227632
ltoes 3.4457462471458484
77
root 0 0 0 -1.4800902705244718 -1.5427975553474633 -3.9890350599278452
lowerback 19.856806845097125 3.027004812128744 0.14484724391476156
upperback 2.267943645090613 4.088852172446402 -0.5279737271588709
thorax -8.676008277279086 1.96842129786419 -1.3108579541740795
lowerneck -8.607185355692494 -5.947017770280298 -1.4636594827493825
upperneck -1.1954327170686003 -8.577880128097618 5.796703133678442
head 1.302692733622476 -3.9325236240872634 1.524109250771044
rclavicle -7.478892005581702E-16 9.74009159942223E-16
rhumerus 36.48395269287567 -4.186153180979858 -29.22943223757752
rradius 150.48545127538213
rwrist -24.37464710792252
rhand -19.464677936219687 -31.05036617999307
rfingers 7.125019999999956
rthumb 6.879459661869294 -60.86904735463768
lclavicle -1.6037191429163623E-15 1.1017327984651713E-15
lhumerus -47.385110971542304 -6.1659878717776015 79.76852345733654
lradius 61.995054026040975
lwrist 10.827661878512794
lhand -14.569036427060418 -19.862041600827382
lfingers 7.125019999999867
lthumb 11.516368942366881 9.869807906859316
rfemur -0.29187270799622844 8.854598492920555 35.60821329079074
rtibia 27.164557313846466
rfoot -21.430595641992266 -7.929414110750193
rtoes 5.27500050951121
lfemur -26.782664311381613 1.7161992772583274 -16.364445252870922
ltibia 47.80364181138556
lfoot -3.1894554980600685 -4.356196433873129
ltoes 7.290537607104085
78
root 0 0 0 -1.4812411067795508 -1.563395889760331 -3.9801145572584713
lowerback 19.96192975254381 3.014496397806623 0.12296483277706738
upperback 2.2795832832445804 4.071016804853397 -0.5204762808226711
thorax -8.723244276477432 1.959521508715055 -1.2902015574494414
lowerneck -8.586033164685068 -5.9381236383507225 -1.4285864491384261
upperneck -1.256258109557944 -8.557782716832383 5.738605639048705
head 1.2875613102248966 -3.926106604071549 1.5016338579921014
rclavicle -5.72363808544731E-16 1.1255748711644512E-15
rhumerus 36.26651425720356 -4.651465897194204 -29.49297941704807
rradius 150.06978023439427
rwrist -23.794490762128866
rhand -19.611402679266963 -30.979919226693642
rfingers 7.125019999999958
rthumb 6.739713150287312 -60.805729737849
lclavicle -1.4760121016129986E-15 1.2050533536923622E-15
lhumerus -47.379904731501924 -6.137132720128224 79.7084187759042
lradius 61.975060424624644
lwrist 10.854403736979748
lhand -14.609585881775004 -19.78535326241783
lfingers 7.125019999999865
lthumb 11.475833180186394 9.960444388599662
rfemur -1.258976214168606 8.691966285078617 35.360273855252295
rtibia 28.311927305264312
rfoot -20.77210894216402 -8.000883274860504
rtoes 4.856122209871185
lfemur -26.702849996578518 1.1452141056494756 -17.197706683621174
ltibia 43.95990639955619
lfoot -2.9441621673946514 -4.1379520011856945
ltoes 10.079424192234669
79
root 0 0 0 -1.4749928692510075 -1.5600509155346654 -3.972340389940944
lowerback 20.05822286678791 2.9976570290957323 0.08662798203333699
upperback 2.28238828512991 4.04678366243758 -0.5045983531866947
thorax -8.773573998271647 1.9482140896570757 -1.2517115495462148
lowerneck -8.548883443642344 -5.934304003967796 -1.390856545121939
upperneck -1.2180519034226087 -8.546563775666137 5.680016698866389
head 1.3046458832424443 -3.9226824894194676 1.4771691789544539
rclavicle -3.7429331311985097E-16 1.1646173692402536E-15
rhumerus 35.96351942144473 -5.269294620261597 -29.82116140248405
rradius 149.37277113010748
rwrist -23.065972557264935
rhand -19.74118556446728 -30.891391483068965
rfingers 7.125019999999962
rthumb 6.616094189549575 -60.723228532236234
lclavicle -1.308663658311186E-15 1.214233254761724E-15
lhumerus -47.367740418416744 -6.1121759871209305 79.65579156549764
lradius 61.956039432242875
lwrist 10.88127697160448
lhand -14.649791438393923 -19.712659577802413
lfingers 7.125019999999863
lthumb 11.435117595535534 10.048272266831313
rfemur -3.2692655584703525 8.463764895433936 34.99029956505329
rtibia 30.16566765843921
rfoot -19.590148120843647 -8.117410461969607
rtoes 4.599120922290371
lfemur -25.638356660910787 0.6744745029379291 -17.87877354684141
ltibia 41.65232607770356
lfoot -2.2415353201389685 -4.501552286363892
ltoes 11.520137656465494
80
root 0 0 0 -1.4537510752656357 -1.4969176135866102 -3.9624153532774558
lowerback 20.163721084762514 2.9619295668143852 0.001030690195254147
upperback 2.276014359387881 3.994996290887677 -0.46001711150207214
thorax -8.8352173844866 1.9256832930834977 -1.1517491691740973
lowerneck -8.457769474929641 -5.943285551144955 -1.3387387469887255
upperneck -0.917988052181272 -8.554117890887726 5.601010287216939
head 1.405846331960845 -3.9263164611033803 1.4404245238523634
rclavicle -5.3617713403095436E-17 9.144348701959835E-16
rhumerus 35.29885662409208 -6.411689713971796 -30.492126878319787
rradius 147.68918221066923
rwrist -21.678009931460473
rhand -19.87133273805175 -30.6760583564384
rfingers 7.1250199999999655
rthumb 6.492126520251658 -60.51412133195515
lclavicle -1.0403623417730708E-15 1.001549964131582E-15
lhumerus -47.33637149474271 -6.085510403715482 79.59401810079238
lradius 61.93442187485511
lwrist 10.925402154079766
lhand -14.70773297708875 -19.60847777800944
lfingers 7.125019999999861
lthumb 11.374965886252802 10.17606337535952
rfemur -8.771343713317126 7.963120951008915 34.175217794073234
rtibia 34.67675925240727
rfoot -16.678103482090762 -8.453121914050143
rtoes 4.948583822478827
lfemur -22.70729002791779 0.2420117502707848 -18.8980445313879
ltibia 40.79598977028549
lfoot -0.5324494444985888 -6.0479992472566595
ltoes 12.22390174664902
81
root 0 0 0 -1.4327341940134577 -1.4223109173951691 -3.9561366707400714
lowerback 20.21996270337671 2.9267597385005435 -0.0830483287293664
upperback 2.273777198782996 3.944253324753457 -0.41145860622400354
thorax -8.864353871972982 1.9041741393117988 -1.0474398680522208
lowerneck -8.359358204785556 -5.9570697188581745 -1.2997913868200905
upperneck -0.5488177147166589 -8.570218325476407 5.541516535050178
head 1.524244966690599 -3.9329960582172925 1.411135062696001
rclavicle 3.140351510600504E-16 5.717815563574431E-16
rhumerus 34.61242238823358 -7.313003445385401 -31.162895085906207
rradius 145.98237851230084
rwrist -20.443260720262497
rhand -19.907555947468374 -30.434572497091686
rfingers 7.125019999999967
rthumb 6.457694875466061 -60.274395503694656
lclavicle -7.953381737717428E-16 7.567829212879987E-16
lhumerus -47.304422040683164 -6.073124148888219 79.56574501007984
lradius 61.92007809739048
lwrist 10.952908574650543
lhand -14.743762640807871 -19.54345079142764
lfingers 7.125019999999859
lthumb 11.33735028387986 10.257698188461426
rfemur -13.276292839917286 7.442536793607045 33.436059249214196
rtibia 38.826293966453385
rfoot -14.282194910688807 -8.69024380973737
rtoes 5.649736869271119
lfemur -20.30888917846648 0.06677571707814689 -19.525773110884057
ltibia 41.38586639370417
lfoot 0.8511676443324703 -7.459270462089294
ltoes 11.91373125445844
82
root 0 0 0 -1.4107327947747295 -1.3434788479864888 -3.949442446143473
lowerback 20.274725668914723 2.879112516234001 -0.18992226367717435
upperback 2.284464598212396 3.87636210512328 -0.343717301275005
thorax -8.87844078773983 1.875293677760895 -0.9076917537456685
lowerneck -8.216212782596315 -5.970993923760968 -1.2486826325171563
upperneck -0.08261103239518874 -8.582128982435952 5.461114623528098
head 1.6684120286656512 -3.938780779142096 1.373022126439425
rclavicle 7.163779278998842E-16 1.5257918987802638E-16
rhumerus 33.61643537227842 -8.297157659776708 -32.086629652138335
rradius 143.74722810273929
rwrist -18.96020978048387
rhand -19.906029570701516 -30.117307469808647
rfingers 7.125019999999968
rthumb 6.458958143263445 -59.95912181277978
lclavicle -6.00606107152416E-16 4.914941553975211E-16
lhumerus -47.26306266309479 -6.077784547064821 79.56352282377001
lradius 61.91178937541444
lwrist 10.978948439298616
lhand -14.769422512943118 -19.485200495026227
lfingers 7.125019999999858
lthumb 11.309643025741144 10.32836431740486
rfemur -17.13479774730371 6.699364601103397 32.62920764944274
rtibia 43.55029876493336
rfoot -12.107533382775467 -8.687976666299598
rtoes 6.482611744359002
lfemur -17.870006123089 -0.08518995820466158 -19.98732680823412
ltibia 42.45409354526486
lfoot 2.24942754321615 -8.899535084235023
ltoes 10.946243386748662
83
root 0 0 0 -1.3828857860068318 -1.2702379282482472 -3.9436200276774995
lowerback 20.33584214821654 2.8187983865028623 -0.31751815950946716
upperback 2.312323810138655 3.791662987357795 -0.25738225749927457
thorax -8.878146084231645 1.8387342427445592 -0.7348500452935995
lowerneck -8.019311828578465 -5.981098148560626 -1.178872415505257
upperneck 0.4405565574393453 -8.582239263414781 5.351620995203298
head 1.8247428526531335 -3.941111107006254 1.3233161413200145
rclavicle 1.150651389732643E-15 -2.572756105722219E-16
rhumerus 32.330952399345406 -9.304109283713219 -33.187690153812596
rradius 141.14522470772246
rwrist -17.4084472858972
rhand -19.86013248915769 -29.795312926896578
rfingers 7.125019999999968
rthumb 6.502122225221289 -59.639070236181354
lclavicle -4.546464390759608E-16 2.3646852271519977E-16
lhumerus -47.218330569797395 -6.100784783886197 79.59897430269494
lradius 61.907464842088515
lwrist 10.991800500475758
lhand -14.774445642860913 -19.452595658251326
lfingers 7.125019999999857
lthumb 11.302589037305928 10.365416500211255
rfemur -20.12366209216682 5.772319002866338 31.879808475260624
rtibia 48.56344848089777
rfoot -10.277509274793317 -8.279004037896343
rtoes 7.501916218276268
lfemur -15.692313338390333 -0.1737340870921109 -20.1444432998646
ltibia 44.02158077467024
lfoot 3.496856864455694 -10.196914264392149
ltoes 9.302284540522919
